<svg id="visual" viewBox="0 0 1425 600" width="1425" height="600" xmlns="http://www.w3.org/2000/svg" xmlns:xlink="http://www.w3.org/1999/xlink" version="1.1"><rect x="0" y="0" width="1425" height="600" fill="#F8FFF8"></rect><defs><linearGradient id="grad1_0" x1="57.9%" y1="100%" x2="100%" y2="0%"><stop offset="2.5%" stop-color="#f8fff8" stop-opacity="1"></stop><stop offset="97.5%" stop-color="#f8fff8" stop-opacity="1"></stop></linearGradient></defs><defs><linearGradient id="grad2_0" x1="0%" y1="100%" x2="42.1%" y2="0%"><stop offset="2.5%" stop-color="#f8fff8" stop-opacity="1"></stop><stop offset="97.5%" stop-color="#f8fff8" stop-opacity="1"></stop></linearGradient></defs><g transform="translate(1425, 600)"><path d="M-240 0C-233.8 -30.9 -227.7 -61.8 -215.3 -89.2C-202.9 -116.5 -184.2 -140.2 -163.3 -163.3C-142.5 -186.5 -119.4 -209.1 -91.8 -221.7C-64.3 -234.4 -32.1 -237.2 0 -240L0 0Z" fill="#23996F"></path></g><g transform="translate(0, 0)"><path d="M240 0C233.7 30.5 227.5 61 216.2 89.5C204.9 118.1 188.7 144.5 167.6 167.6C146.5 190.6 120.6 210.2 91.8 221.7C63.1 233.2 31.6 236.6 0 240L0 0Z" fill="#23996F"></path></g></svg>