<svg id="visual" viewBox="0 0 900 900" width="900" height="900" xmlns="http://www.w3.org/2000/svg" xmlns:xlink="http://www.w3.org/1999/xlink" version="1.1"><rect x="0" y="0" width="900" height="900" fill="#F8FFF8"></rect><defs><linearGradient id="grad1_0" x1="0%" y1="100%" x2="100%" y2="0%"><stop offset="30%" stop-color="#f8fff8" stop-opacity="1"></stop><stop offset="70%" stop-color="#f8fff8" stop-opacity="1"></stop></linearGradient></defs><defs><linearGradient id="grad2_0" x1="0%" y1="100%" x2="100%" y2="0%"><stop offset="30%" stop-color="#f8fff8" stop-opacity="1"></stop><stop offset="70%" stop-color="#f8fff8" stop-opacity="1"></stop></linearGradient></defs><g transform="translate(900, 900)"><path d="M-254.6 0C-249.4 -32.6 -244.2 -65.2 -232.8 -96.4C-221.4 -127.6 -203.9 -157.4 -180 -180C-156.1 -202.6 -126 -217.9 -94.9 -229.1C-63.9 -240.3 -31.9 -247.5 0 -254.6L0 0Z" fill="#23996F"></path></g><g transform="translate(0, 0)"><path d="M254.6 0C251 34.1 247.5 68.2 233.7 96.8C220 125.4 196 148.6 172.5 172.5C149.1 196.5 126.1 221.4 97.4 235.2C68.7 249 34.4 251.8 0 254.6L0 0Z" fill="#23996F"></path></g></svg>