<svg id="visual" viewBox="0 0 900 450" width="900" height="450" xmlns="http://www.w3.org/2000/svg" xmlns:xlink="http://www.w3.org/1999/xlink" version="1.1"><rect x="0" y="0" width="900" height="450" fill="#F8FFF8"></rect><defs><linearGradient id="grad1_0" x1="50%" y1="100%" x2="100%" y2="0%"><stop offset="10%" stop-color="#f8fff8" stop-opacity="1"></stop><stop offset="90%" stop-color="#f8fff8" stop-opacity="1"></stop></linearGradient></defs><defs><linearGradient id="grad2_0" x1="0%" y1="100%" x2="50%" y2="0%"><stop offset="10%" stop-color="#f8fff8" stop-opacity="1"></stop><stop offset="90%" stop-color="#f8fff8" stop-opacity="1"></stop></linearGradient></defs><g transform="translate(900, 450)"><path d="M-112.5 0C-110.1 -11.5 -107.6 -23 -103.7 -33.7C-99.7 -44.3 -94.3 -54.1 -88.2 -64.1C-82.1 -74.1 -75.4 -84.4 -66.1 -91C-56.9 -97.7 -45.1 -100.7 -33.7 -103.7C-22.2 -106.6 -11.1 -109.6 0 -112.5L0 0Z" fill="#23996F"></path></g><g transform="translate(0, 0)"><path d="M112.5 0C111.8 12 111 24 107 34.8C103 45.5 95.6 55.1 88.2 64.1C80.7 73.1 73.1 81.5 64.1 88.2C55 94.9 44.6 99.9 33.7 103.7C22.8 107.4 11.4 110 0 112.5L0 0Z" fill="#23996F"></path></g></svg>